<?xml version="1.0" encoding="iso-8859-1"?>
<!-- Generator: Adobe Illustrator 18.1.1, SVG Export Plug-In . SVG Version: 6.00 Build 0)  -->
<svg version="1.1" id="Capa_1" xmlns="http://www.w3.org/2000/svg" xmlns:xlink="http://www.w3.org/1999/xlink" x="0px" y="0px"
	 viewBox="0 0 612 612" style="enable-background:new 0 0 612 612;" xml:space="preserve">
<g>
	<g>
		<path style="fill:#010002;" d="M484.704,247.248c0.813-4.896-0.408-9.588-3.672-14.076c-3.267-4.08-7.548-6.528-12.854-7.344
			l-246.636-27.54l-3.06-29.988c-0.408-3.672-1.836-7.038-4.284-10.098s-5.304-4.998-8.568-5.814l-54.468-17.136
			c-4.896-1.632-9.588-1.224-14.076,1.224s-7.548,6.12-9.18,11.016c-1.632,4.896-1.224,9.588,1.224,14.076
			c2.448,4.488,6.12,7.548,11.016,9.18l42.228,13.464l15.3,150.552l-9.792,53.856c-0.408,2.448-0.306,4.998,0.306,7.647
			c0.612,2.652,1.938,4.998,3.978,7.038c3.672,4.488,8.364,6.732,14.076,6.732h230.111c5.305,0,9.793-1.734,13.465-5.202
			s5.508-7.854,5.508-13.158s-1.836-9.688-5.508-13.156c-3.672-3.47-8.16-5.201-13.465-5.201h-208.08l4.284-24.48h219.096
			c4.485,0,8.361-1.428,11.628-4.284c3.264-2.854,5.304-6.525,6.12-11.016L484.704,247.248z M402.696,477.972
			c8.16,0,14.994-2.754,20.502-8.262s8.262-12.342,8.262-20.502s-2.754-14.994-8.262-20.502s-12.342-8.262-20.502-8.262
			s-14.895,2.754-20.196,8.262s-7.956,12.342-7.956,20.502s2.652,14.994,7.956,20.502S394.536,477.972,402.696,477.972z
			 M234.396,477.972c8.16,0,14.994-2.754,20.502-8.262c5.508-5.508,8.262-12.342,8.262-20.502s-2.754-14.994-8.262-20.502
			s-12.342-8.262-20.502-8.262s-14.994,2.754-20.502,8.262s-8.262,12.342-8.262,20.502s2.754,14.994,8.262,20.502
			S226.236,477.972,234.396,477.972z M306,0c42.024,0,81.702,8.058,119.034,24.174s69.768,37.944,97.308,65.484
			s49.368,59.976,65.484,97.308S612,263.976,612,306c0,28.152-3.672,55.284-11.016,81.396
			c-7.347,26.109-17.646,50.487-30.906,73.134c-13.26,22.644-29.172,43.248-47.736,61.812
			c-18.562,18.564-39.168,34.479-61.812,47.736c-22.646,13.26-47.022,23.562-73.136,30.906C361.284,608.328,334.152,612,306,612
			s-55.284-3.672-81.396-11.016c-26.112-7.347-50.49-17.646-73.134-30.906s-43.248-29.172-61.812-47.736
			c-18.564-18.562-34.476-39.168-47.736-61.812c-13.26-22.646-23.562-47.022-30.906-73.135C3.672,361.284,0,334.152,0,306
			s3.672-55.284,11.016-81.396s17.646-50.49,30.906-73.134s29.172-43.248,47.736-61.812s39.168-34.476,61.812-47.736
			s47.022-23.562,73.134-30.906S277.848,0,306,0z"/>
	</g>
</g>
<g>
</g>
<g>
</g>
<g>
</g>
<g>
</g>
<g>
</g>
<g>
</g>
<g>
</g>
<g>
</g>
<g>
</g>
<g>
</g>
<g>
</g>
<g>
</g>
<g>
</g>
<g>
</g>
<g>
</g>
</svg>
